<?xml version="1.0" encoding="utf-8"?>
<!-- Svg Vector Icons : http://www.onlinewebfonts.com/icon -->
<!DOCTYPE svg PUBLIC "-//W3C//DTD SVG 1.1//EN" "http://www.w3.org/Graphics/SVG/1.1/DTD/svg11.dtd">
<svg version="1.1" xmlns="http://www.w3.org/2000/svg" xmlns:xlink="http://www.w3.org/1999/xlink" x="0px" y="0px" viewBox="0 0 256 256" enable-background="new 0 0 256 256" xml:space="preserve">
<metadata> Svg Vector Icons : http://www.onlinewebfonts.com/icon </metadata>
<g><g><g><g><g><path fill="#000000" d="M195.9,246H60.1c-9.1,0-16.5-7.4-16.5-16.5V45.3c0-9.1,7.4-16.5,16.5-16.5h44.6v12.8H151V28.7h44.9c9.1,0,16.5,7.4,16.5,16.5v184.2C212.4,238.6,205,246,195.9,246z M60.1,34.7c-5.8,0-10.5,4.7-10.5,10.5v184.2c0,5.8,4.7,10.5,10.5,10.5h135.7c5.8,0,10.5-4.7,10.5-10.5V45.3c0-5.8-4.7-10.5-10.5-10.5H157v12.8H98.7V34.7H60.1z"/></g><g><path fill="#000000" d="M148.6,37.8h-41.5V18.7h12.4v-0.3c0-4.6,3.8-8.4,8.4-8.4h0.1c4.6,0,8.4,3.8,8.4,8.4v0.3h12.2V37.8L148.6,37.8z M113.1,31.9h29.5v-7.1h-12.2v-6.3c0-1.3-1.1-2.4-2.4-2.4h-0.1c-1.3,0-2.4,1.1-2.4,2.4v6.3h-12.4V31.9L113.1,31.9z"/></g></g></g><g></g><g></g><g></g><g></g><g></g><g></g><g></g><g></g><g></g><g></g><g></g><g></g><g></g><g></g><g></g></g></g>
</svg>